<svg width="399" height="128" viewBox="0 0 399 128" fill="none" xmlns="http://www.w3.org/2000/svg">
<g filter="url(#filter0_d_0_310)">
<g filter="url(#filter1_d_0_310)">
<rect x="36" y="32" width="327" height="56" rx="28" fill="#A2283A"/>
</g>
<path d="M172.732 59.08C172.444 58.5253 172.044 58.1093 171.532 57.832C171.02 57.544 170.428 57.4 169.756 57.4C169.02 57.4 168.364 57.5653 167.788 57.896C167.212 58.2267 166.759 58.696 166.428 59.304C166.108 59.912 165.948 60.616 165.948 61.416C165.948 62.216 166.108 62.9253 166.428 63.544C166.759 64.152 167.212 64.6213 167.788 64.952C168.364 65.2827 169.02 65.448 169.756 65.448C170.748 65.448 171.554 65.1707 172.172 64.616C172.791 64.0613 173.17 63.3093 173.308 62.36H169.132V60.904H175.26V62.328C175.143 63.192 174.834 63.9867 174.332 64.712C173.842 65.4373 173.196 66.0187 172.396 66.456C171.607 66.8827 170.727 67.096 169.756 67.096C168.711 67.096 167.756 66.856 166.892 66.376C166.028 65.8853 165.34 65.208 164.828 64.344C164.327 63.48 164.076 62.504 164.076 61.416C164.076 60.328 164.327 59.352 164.828 58.488C165.34 57.624 166.028 56.952 166.892 56.472C167.767 55.9813 168.722 55.736 169.756 55.736C170.94 55.736 171.991 56.0293 172.908 56.616C173.836 57.192 174.508 58.0133 174.924 59.08H172.732ZM177.987 57.016C177.657 57.016 177.379 56.904 177.155 56.68C176.931 56.456 176.819 56.1787 176.819 55.848C176.819 55.5173 176.931 55.24 177.155 55.016C177.379 54.792 177.657 54.68 177.987 54.68C178.307 54.68 178.579 54.792 178.803 55.016C179.027 55.24 179.139 55.5173 179.139 55.848C179.139 56.1787 179.027 56.456 178.803 56.68C178.579 56.904 178.307 57.016 177.987 57.016ZM178.883 58.184V67H177.059V58.184H178.883ZM183.102 59.464C183.369 59.016 183.721 58.6693 184.158 58.424C184.606 58.168 185.134 58.04 185.742 58.04V59.928H185.278C184.563 59.928 184.019 60.1093 183.646 60.472C183.283 60.8347 183.102 61.464 183.102 62.36V67H181.278V58.184H183.102V59.464ZM188.347 57.016C188.016 57.016 187.739 56.904 187.515 56.68C187.291 56.456 187.179 56.1787 187.179 55.848C187.179 55.5173 187.291 55.24 187.515 55.016C187.739 54.792 188.016 54.68 188.347 54.68C188.667 54.68 188.939 54.792 189.163 55.016C189.387 55.24 189.499 55.5173 189.499 55.848C189.499 56.1787 189.387 56.456 189.163 56.68C188.939 56.904 188.667 57.016 188.347 57.016ZM189.243 58.184V67H187.419V58.184H189.243ZM198.214 64.536C198.214 65.2293 197.958 65.816 197.446 66.296C196.934 66.7653 196.24 67.0373 195.366 67.112V67.768C195.984 67.768 196.486 67.912 196.87 68.2C197.254 68.4987 197.446 68.9147 197.446 69.448C197.446 69.9813 197.254 70.4027 196.87 70.712C196.486 71.032 196 71.192 195.414 71.192H193.302V70.04H195.046C195.344 70.04 195.568 69.9973 195.718 69.912C195.867 69.8267 195.942 69.672 195.942 69.448C195.942 69.224 195.867 69.0693 195.718 68.984C195.568 68.8987 195.344 68.856 195.046 68.856H194.166V67.096C193.302 66.9893 192.592 66.6747 192.038 66.152C191.483 65.6293 191.19 65.0107 191.158 64.296H193.046C193.078 64.6693 193.254 64.984 193.574 65.24C193.904 65.4853 194.315 65.608 194.806 65.608C195.318 65.608 195.712 65.512 195.99 65.32C196.278 65.1173 196.422 64.8613 196.422 64.552C196.422 64.2213 196.262 63.976 195.942 63.816C195.632 63.656 195.136 63.48 194.454 63.288C193.792 63.1067 193.254 62.9307 192.838 62.76C192.422 62.5893 192.059 62.328 191.75 61.976C191.451 61.624 191.302 61.16 191.302 60.584C191.302 60.1147 191.44 59.688 191.718 59.304C191.995 58.9093 192.39 58.6 192.902 58.376C193.424 58.152 194.022 58.04 194.694 58.04C195.696 58.04 196.502 58.296 197.11 58.808C197.728 59.3093 198.059 59.9973 198.102 60.872H196.278C196.246 60.4773 196.086 60.1627 195.798 59.928C195.51 59.6933 195.12 59.576 194.63 59.576C194.15 59.576 193.782 59.6667 193.526 59.848C193.27 60.0293 193.142 60.2693 193.142 60.568C193.142 60.8027 193.227 61 193.398 61.16C193.568 61.32 193.776 61.448 194.022 61.544C194.267 61.6293 194.63 61.7413 195.11 61.88C195.75 62.0507 196.272 62.2267 196.678 62.408C197.094 62.5787 197.451 62.8347 197.75 63.176C198.048 63.5173 198.203 63.9707 198.214 64.536ZM212.581 55.88L208.901 62.968V67H207.077V62.968L203.381 55.88H205.413L207.989 61.336L210.565 55.88H212.581ZM213.42 62.552C213.42 61.6667 213.601 60.8827 213.964 60.2C214.337 59.5173 214.839 58.9893 215.468 58.616C216.108 58.232 216.812 58.04 217.58 58.04C218.273 58.04 218.876 58.1787 219.388 58.456C219.911 58.7227 220.327 59.0587 220.636 59.464V58.184H222.476V67H220.636V65.688C220.327 66.104 219.905 66.4507 219.372 66.728C218.839 67.0053 218.231 67.144 217.548 67.144C216.791 67.144 216.097 66.952 215.468 66.568C214.839 66.1733 214.337 65.6293 213.964 64.936C213.601 64.232 213.42 63.4373 213.42 62.552ZM220.636 62.584C220.636 61.976 220.508 61.448 220.252 61C220.007 60.552 219.681 60.2107 219.276 59.976C218.871 59.7413 218.433 59.624 217.964 59.624C217.495 59.624 217.057 59.7413 216.652 59.976C216.247 60.2 215.916 60.536 215.66 60.984C215.415 61.4213 215.292 61.944 215.292 62.552C215.292 63.16 215.415 63.6933 215.66 64.152C215.916 64.6107 216.247 64.9627 216.652 65.208C217.068 65.4427 217.505 65.56 217.964 65.56C218.433 65.56 218.871 65.4427 219.276 65.208C219.681 64.9733 220.007 64.632 220.252 64.184C220.508 63.7253 220.636 63.192 220.636 62.584ZM226.696 59.48C227.005 59.0747 227.427 58.7333 227.96 58.456C228.493 58.1787 229.096 58.04 229.768 58.04C230.536 58.04 231.235 58.232 231.864 58.616C232.504 58.9893 233.005 59.5173 233.368 60.2C233.731 60.8827 233.912 61.6667 233.912 62.552C233.912 63.4373 233.731 64.232 233.368 64.936C233.005 65.6293 232.504 66.1733 231.864 66.568C231.235 66.952 230.536 67.144 229.768 67.144C229.096 67.144 228.499 67.0107 227.976 66.744C227.453 66.4667 227.027 66.1253 226.696 65.72V71.192H224.872V58.184H226.696V59.48ZM232.056 62.552C232.056 61.944 231.928 61.4213 231.672 60.984C231.427 60.536 231.096 60.2 230.68 59.976C230.275 59.7413 229.837 59.624 229.368 59.624C228.909 59.624 228.472 59.7413 228.056 59.976C227.651 60.2107 227.32 60.552 227.064 61C226.819 61.448 226.696 61.976 226.696 62.584C226.696 63.192 226.819 63.7253 227.064 64.184C227.32 64.632 227.651 64.9733 228.056 65.208C228.472 65.4427 228.909 65.56 229.368 65.56C229.837 65.56 230.275 65.4427 230.68 65.208C231.096 64.9627 231.427 64.6107 231.672 64.152C231.928 63.6933 232.056 63.16 232.056 62.552Z" fill="white"/>
</g>
<defs>
<filter id="filter0_d_0_310" x="32" y="32" width="335" height="64" filterUnits="userSpaceOnUse" color-interpolation-filters="sRGB">
<feFlood flood-opacity="0" result="BackgroundImageFix"/>
<feColorMatrix in="SourceAlpha" type="matrix" values="0 0 0 0 0 0 0 0 0 0 0 0 0 0 0 0 0 0 127 0" result="hardAlpha"/>
<feOffset dy="4"/>
<feGaussianBlur stdDeviation="2"/>
<feComposite in2="hardAlpha" operator="out"/>
<feColorMatrix type="matrix" values="0 0 0 0 0 0 0 0 0 0 0 0 0 0 0 0 0 0 0.52 0"/>
<feBlend mode="normal" in2="BackgroundImageFix" result="effect1_dropShadow_0_310"/>
<feBlend mode="normal" in="SourceGraphic" in2="effect1_dropShadow_0_310" result="shape"/>
</filter>
<filter id="filter1_d_0_310" x="0" y="0" width="399" height="128" filterUnits="userSpaceOnUse" color-interpolation-filters="sRGB">
<feFlood flood-opacity="0" result="BackgroundImageFix"/>
<feColorMatrix in="SourceAlpha" type="matrix" values="0 0 0 0 0 0 0 0 0 0 0 0 0 0 0 0 0 0 127 0" result="hardAlpha"/>
<feOffset dy="4"/>
<feGaussianBlur stdDeviation="18"/>
<feColorMatrix type="matrix" values="0 0 0 0 0.0627451 0 0 0 0 0.647059 0 0 0 0 0.976471 0 0 0 0.2 0"/>
<feBlend mode="normal" in2="BackgroundImageFix" result="effect1_dropShadow_0_310"/>
<feBlend mode="normal" in="SourceGraphic" in2="effect1_dropShadow_0_310" result="shape"/>
</filter>
</defs>
</svg>
